<?xml version="1.0" standalone="no"?>
<!DOCTYPE svg PUBLIC "-//W3C//DTD SVG 1.1//EN" "http://www.w3.org/Graphics/SVG/1.1/DTD/svg11.dtd" >
<svg xmlns="http://www.w3.org/2000/svg">
<metadata></metadata>
<defs>
<font id="coneroregular" horiz-adv-x="867" >
<font-face units-per-em="2048" ascent="1638" descent="-410" />
<missing-glyph horiz-adv-x="508" />
<glyph unicode="&#xd;" horiz-adv-x="508" />
<glyph unicode=" "  horiz-adv-x="508" />
<glyph unicode="&#x09;" horiz-adv-x="508" />
<glyph unicode="&#xa0;" horiz-adv-x="508" />
<glyph unicode="A" horiz-adv-x="881" d="M30 0l298 1432h255l298 -1432h-239l-32 173h-308l-33 -173h-239zM347 412h217l-108 574z" />
<glyph unicode="B" horiz-adv-x="1010" d="M90 0v1434h502q145 0 253 -126q105 -122 105 -275q0 -91 -49 -177q-55 -99 -141 -122q82 -36 139 -145q51 -99 51 -188q0 -153 -105 -275q-108 -126 -253 -126h-502zM326 245h215q89 0 136 68q37 52 37 117q0 67 -37 122q-47 72 -136 72h-215v-379zM326 852h215 q89 0 136 64q37 49 37 113q0 63 -37 109q-46 60 -136 60h-215v-346z" />
<glyph unicode="C" d="M90 359v717q0 148 105 253t254 105q148 0 253 -105t105 -253v-241h-236v207q0 91 -39 128q-29 28 -88 28q-57 0 -84 -28q-34 -36 -34 -128v-641q0 -93 34 -132q28 -33 84 -33q127 0 127 165v189h236v-231q0 -149 -105 -254t-253 -105q-149 0 -254 105t-105 254z" />
<glyph unicode="D" horiz-adv-x="856" d="M90 0v1434h397q101 -13 181 -77q78 -64 112 -160q18 -54 18 -119v-717q0 -63 -17 -116l-1 -1v-2q-10 -26 -22 -50q-8 -17 -17 -30q-8 -11 -13 -18q-4 -6 -7 -9q-14 -18 -29 -32q-64 -65 -149 -90q-11 -3 -15 -4q-3 -1 -17 -3q-2 -1 -8 -1q-6 -1 -8 -1q-11 -2 -23 -3 q-15 -1 -29 -1h-353zM326 245h163q36 9 53 41q20 37 20 109v641q0 78 -24 118q-20 35 -61 43h-151v-952z" />
<glyph unicode="E" d="M90 0v1434h717v-239h-478v-358h478v-240h-478v-358h478v-239h-717z" />
<glyph unicode="F" d="M90 0v1434h717v-239h-478v-358h462v-239h-462v-598h-239z" />
<glyph unicode="G" d="M90 358v717q0 149 105 254t253 105q149 0 254 -105t105 -254v-113h-236v80q0 91 -39 128q-29 28 -88 28q-57 0 -84 -28q-34 -37 -34 -128v-641q0 -93 34 -132q28 -33 84 -33q127 0 127 165v145h-124v202h360v-390q0 -148 -105 -253t-254 -105q-148 0 -253 105t-105 253z " />
<glyph unicode="H" d="M90 0v1434h239v-597h239v597h239v-1434h-239v597h-239v-597h-239z" />
<glyph unicode="I" horiz-adv-x="389" d="M90 0v1435h239v-1435h-239z" />
<glyph unicode="J" horiz-adv-x="851" d="M70 361v38h250v-19q3 -82 36 -116q27 -27 80 -27t81 29q32 35 36 116q1 10 1 21v1031h237v-1073q0 -116 -66 -210q-66 -91 -171 -130h-1q-59 -21 -122 -21q-150 0 -256 106q-105 105 -105 255z" />
<glyph unicode="K" horiz-adv-x="925" d="M90 0v1432h239v-604l292 606h244l-343 -723l343 -709h-254l-282 592v-594h-239z" />
<glyph unicode="L" horiz-adv-x="837" d="M90 0v1434h239v-1195h478v-239h-717z" />
<glyph unicode="M" horiz-adv-x="1256" d="M50 0l239 1434h239l120 -801l119 801h239l240 -1434h-239l-120 801l-120 -801h-239l-119 801l-120 -801h-239z" />
<glyph unicode="N" d="M90 0v1434h177l304 -702v702h236v-1434h-187l-294 715v-715h-236z" />
<glyph unicode="O" d="M90 359v717q0 148 105 253t254 105q148 0 253 -105t105 -253v-717q0 -149 -105 -254t-253 -105q-149 0 -254 105t-105 254zM326 418q0 -95 34 -141q31 -41 84 -41q54 0 84 41q34 46 34 141v607q0 173 -118 173t-118 -173v-607z" />
<glyph unicode="P" horiz-adv-x="970" d="M90 0v1434h502q72 0 139 -37q64 -35 114 -97q105 -129 105 -284q0 -153 -105 -279q-109 -130 -253 -130h-266v-607h-236zM326 835h215q89 0 136 68q37 52 37 118q0 63 -37 113q-47 64 -136 64h-215v-363z" />
<glyph unicode="Q" horiz-adv-x="894" d="M90 353v720q0 149 105 255q106 105 255 105q150 0 255 -105q105 -106 105 -255v-720q0 -133 -85 -233q19 -6 56 -14q37 -9 53 -14l-26 -158q-145 24 -237 79q-59 -21 -121 -21q-149 0 -255 106q-105 105 -105 255zM327 395q0 -137 77 -160q18 -5 42 -5q72 0 103 51 q24 40 24 114v644q0 91 -39 128q-29 29 -88 29q-58 0 -84 -29q-35 -36 -35 -128v-644z" />
<glyph unicode="R" horiz-adv-x="1000" d="M90 0v1434h502q72 0 139 -37q64 -35 114 -97q105 -129 105 -284q0 -116 -65 -223q-66 -108 -167 -156l232 -637h-254l-217 607h-153v-607h-236zM326 835h215q55 0 95 27t61 76q17 41 17 83q0 63 -37 113q-47 64 -136 64h-215v-363z" />
<glyph unicode="S" horiz-adv-x="847" d="M80 364v98h236v-75q3 -86 36 -120q27 -27 82 -27h9q55 0 81 27q34 34 37 120v12q0 48 -10 64q-127 113 -229 206q-185 171 -203 205q-3 4 -7 11q-32 62 -32 184v1q0 151 105 257q105 107 254 107q148 0 253 -107q105 -106 105 -257v-98h-236v76q-3 85 -37 119 q-26 27 -81 27h-9q-55 0 -82 -27q-33 -34 -36 -119v-13q0 -48 10 -64q126 -111 228 -206q186 -171 203 -204q4 -5 7 -12q33 -62 33 -184v-1q0 -151 -105 -257q-105 -107 -253 -107q-149 0 -254 107q-105 106 -105 257z" />
<glyph unicode="T" horiz-adv-x="877" d="M30 1195v239h837v-239h-299v-1195h-239v1195h-299z" />
<glyph unicode="U" d="M90 359v1075h245v-1033q0 -93 34 -132q28 -33 84 -33t84 33q34 39 34 132v1033h236v-1075q0 -115 -66 -209q-65 -91 -170 -129q-59 -21 -122 -21q-59 0 -114 18q-109 36 -176 129q-69 94 -69 212z" />
<glyph unicode="V" horiz-adv-x="912" d="M50 1434h239l187 -987l187 987h239l-298 -1434h-256z" />
<glyph unicode="W" horiz-adv-x="1255" d="M50 1434h239l120 -801l119 801h239l120 -801l119 801h239l-239 -1434h-239l-119 801l-120 -801h-239z" />
<glyph unicode="X" horiz-adv-x="857" d="M60 0l259 710l-259 724h245l138 -382l140 382h244l-258 -724l258 -710h-254l-130 361l-129 -361h-254z" />
<glyph unicode="Y" horiz-adv-x="895" d="M50 1434h248l172 -542l173 542h242l-301 -840v-594h-236v594z" />
<glyph unicode="Z" horiz-adv-x="857" d="M60 0v147l453 1047h-453v239h767l-1 -148l-460 -1046h461v-239h-767z" />
<glyph unicode="a" horiz-adv-x="1024" d="M90 371v284q0 48 16 97q40 117 160 196q117 79 247 79q93 0 185 -43l18 -8v51h248v-1027h-248v50l-18 -8q-92 -42 -185 -42q-131 0 -249 79q-121 82 -159 201q-15 45 -15 91zM326 423q0 -91 70 -140q54 -38 122 -38q58 0 107 30q61 39 73 112q3 17 3 36v180q0 19 -3 36 q-12 73 -73 113q-49 30 -107 30q-68 0 -122 -38q-70 -50 -70 -141v-180z" />
<glyph unicode="b" horiz-adv-x="1002" d="M90 0v1438h243v-460q94 43 187 43q132 0 249 -79q120 -80 158 -199q15 -45 15 -91v-283q0 -48 -16 -95q-40 -117 -159 -196q-117 -78 -247 -78q-93 0 -187 43v-43h-243zM333 422q0 -92 66 -141q51 -38 117 -38q67 0 121 38q70 49 70 141v178q0 91 -70 140q-54 38 -121 38 q-66 0 -117 -38q-66 -48 -66 -140v-178z" />
<glyph unicode="c" horiz-adv-x="1004" d="M90 370v284q0 64 29 126q50 106 166 176q115 68 237 68q131 0 249 -79q120 -81 158 -200q15 -45 15 -91v-74h-235v22q0 91 -71 140q-54 38 -122 38q-65 0 -116 -38q-66 -49 -66 -140v-180q0 -91 66 -140q51 -38 116 -38q68 0 122 38q71 49 71 140v22h235v-74 q0 -48 -16 -95q-40 -118 -159 -197q-118 -78 -247 -78q-121 0 -234 67q-116 69 -167 172q-31 64 -31 131z" />
<glyph unicode="d" horiz-adv-x="1002" d="M90 369v283q0 46 15 91q38 119 158 199q117 79 249 79q93 0 186 -43v460h244v-1438h-244v43q-93 -43 -186 -43q-131 0 -247 78q-119 79 -159 196q-16 47 -16 95zM325 422q0 -92 70 -141q54 -38 121 -38q66 0 117 38q65 49 65 141v178q0 92 -65 140q-51 38 -117 38 q-67 0 -121 -38q-70 -49 -70 -140v-178z" />
<glyph unicode="e" horiz-adv-x="1004" d="M90 370v283q0 65 29 126q51 106 166 176q115 68 236 68q132 0 249 -79q120 -81 159 -199q15 -46 15 -92v-178h-610v-53q0 -31 8 -58q18 -62 76 -94q46 -26 99 -26t102 26q61 33 81 94h243q0 -45 -16 -90q-40 -117 -159 -196q-117 -78 -247 -78q-120 0 -233 67 q-115 68 -166 173q-32 63 -32 130zM334 611h374q-1 16 -3 27q-13 72 -78 111q-51 30 -110 30q-58 0 -106 -30q-62 -38 -74 -111q-2 -11 -3 -27z" />
<glyph unicode="f" horiz-adv-x="656" d="M60 820v139h153v95q0 115 69 212q67 96 173 136q58 22 118 22v-248q-57 0 -84 -28q-33 -36 -33 -127v-62h170v-139h-170l-1 -820h-242v820h-153z" />
<glyph unicode="g" horiz-adv-x="979" d="M90 -41l230 4q3 -19 10 -35q18 -49 65 -78q38 -23 86 -29q1 -1 6 -1q8 -1 18 -1q9 0 18 1q2 0 6 1q52 7 91 36q49 37 59 101q3 16 3 35v75q-91 -41 -181 -41q-43 0 -86 10q-117 24 -205 104q-77 69 -106 157q-14 44 -14 88v275q0 47 16 93q39 114 153 191q115 75 242 75 q90 0 181 -42v42h237v-1078q0 -47 -16 -93q-25 -74 -85 -134q-58 -58 -136 -94q-1 0 -3 -1h-1q-80 -37 -173 -37h-4q-86 0 -171 37q-80 35 -138 94q-61 61 -86 135q-16 46 -16 93v17zM318 437q0 -89 68 -136q53 -37 119 -37q57 0 104 30q61 40 71 113q2 14 2 30v173 q0 89 -64 137q-50 36 -113 36q-66 0 -119 -36q-68 -48 -68 -137v-173z" />
<glyph unicode="h" horiz-adv-x="1005" d="M90 0v1433h247v-450q93 42 185 42q88 0 176 -39q81 -36 142 -97q63 -63 89 -139q16 -47 16 -96v-654h-239l3 602q0 37 -11 67q-22 57 -82 87q-47 25 -99 25q-57 0 -106 -31q-61 -38 -74 -111v-639h-247z" />
<glyph unicode="i" horiz-adv-x="398" d="M90 0v1028h248v-1028h-248zM90 1098v236h248v-236h-248z" />
<glyph unicode="j" horiz-adv-x="445" d="M20 -168q58 0 85 27q34 37 34 129v1033h246v-1067q0 -115 -70 -214q-69 -97 -176 -137q-58 -22 -119 -23v252zM144 1097v229h241v-229h-241z" />
<glyph unicode="k" horiz-adv-x="919" d="M90 0v1437h250v-808l278 395h291l-359 -516l359 -506h-301l-268 385v-387h-250z" />
<glyph unicode="l" horiz-adv-x="482" d="M90 372v959h244v-926q0 -91 34 -127q26 -28 84 -28v-250q-60 1 -118 22q-107 41 -175 137q-69 98 -69 213z" />
<glyph unicode="m" horiz-adv-x="1618" d="M90 0v1022h247v-41q92 42 184 42q88 0 175 -39q72 -32 128 -83q56 51 128 83q87 38 175 38h4q91 -1 180 -41v3q82 -36 142 -97q63 -63 89 -139q16 -47 16 -95v-653h-247l3 600q0 20 -3 37q-11 64 -61 102q-40 31 -94 38q-5 1 -6 1q-9 1 -19 1q-9 0 -18 -1q-5 -1 -6 -1 q-49 -6 -88 -30q-48 -30 -67 -80q-6 -15 -9 -32v-635h-238v635q-3 18 -9 32q-22 57 -81 87q-47 25 -99 25q-57 0 -106 -31q-61 -38 -73 -111q-3 -17 -3 -36l3 -601h-247z" />
<glyph unicode="n" horiz-adv-x="1003" d="M90 0v1023h247v-42q92 42 184 42q88 0 175 -39q82 -36 142 -96q63 -63 89 -139q16 -48 16 -96v-653h-238l3 601q0 36 -12 67q-22 57 -81 87q-47 24 -98 24q-58 0 -107 -30q-61 -39 -73 -112q-3 -17 -3 -36l3 -601h-247z" />
<glyph unicode="o" horiz-adv-x="1003" d="M90 370v283q0 65 29 126q51 106 166 175q114 69 236 69q132 0 249 -79q120 -81 158 -200q15 -45 15 -91v-283q0 -48 -16 -96q-40 -117 -159 -196q-117 -78 -247 -78q-120 0 -233 67q-115 68 -166 172q-32 64 -32 131zM334 422q0 -92 66 -140q51 -38 117 -38q67 0 121 38 q70 49 70 140v179q0 91 -70 140q-54 38 -121 38q-66 0 -117 -38q-66 -48 -66 -140v-179z" />
<glyph unicode="p" horiz-adv-x="999" d="M90 -420v1443h243v-43q93 43 186 43q129 0 246 -78q118 -79 158 -195q16 -47 16 -96v-281q0 -46 -15 -91q-38 -118 -157 -198q-117 -79 -248 -79q-93 0 -186 43v-468h-243zM333 425q0 -92 65 -140q51 -38 116 -38q67 0 121 38q70 49 70 140v178q0 91 -70 139 q-54 38 -121 38q-65 0 -116 -38q-65 -48 -65 -139v-178z" />
<glyph unicode="q" horiz-adv-x="997" d="M90 371v281q0 48 16 95q40 117 158 195q116 78 245 78q93 0 186 -43v43h242v-1440h-242v467q-93 -43 -186 -43q-130 0 -247 79q-119 80 -157 198q-15 45 -15 90zM323 423q0 -91 70 -139q54 -38 121 -38q65 0 116 38q65 48 65 139v178q0 91 -65 139q-51 38 -116 38 q-67 0 -121 -38q-70 -49 -70 -139v-178z" />
<glyph unicode="r" horiz-adv-x="576" d="M90 0v1027h226v-43q34 33 94 44q28 5 55 5q19 0 37 -2q31 -4 49 -8v-196q-104 0 -162 -69q-55 -64 -55 -170v-588h-244z" />
<glyph unicode="s" horiz-adv-x="778" d="M80 261v70h206v-54q0 -30 31 -58q34 -29 76 -29h7q44 0 71 23q27 24 27 64v4q1 3 1 4v1q0 34 -9 45q-349 243 -378 287q-2 4 -6 8q-26 40 -26 139q0 109 95 185t230 76t231 -76q94 -76 94 -185v-70h-207v54q0 34 -33 60q-32 27 -73 28q-45 -1 -72 -18q-33 -23 -33 -70v-9 q0 -34 8 -45q143 -100 201 -141q164 -118 179 -142q3 -3 7 -8q23 -35 23 -143q0 -109 -94 -185q-96 -76 -231 -76t-230 76t-95 185z" />
<glyph unicode="t" horiz-adv-x="537" d="M50 883v141h102v300h246v-300h110v-141h-110v-474q0 -93 34 -129q27 -28 85 -28v-252q-61 1 -119 23q-108 40 -177 137q-69 99 -69 215v508h-102z" />
<glyph unicode="u" horiz-adv-x="1003" d="M90 370v653h238l-3 -601q0 -36 12 -67q22 -57 81 -87q47 -24 99 -24q58 0 106 30q61 39 74 112q3 17 3 36l-3 601h246v-1023h-246v42q-93 -42 -185 -42q-88 0 -175 39q-81 35 -142 96q-63 63 -89 139q-16 48 -16 96z" />
<glyph unicode="v" horiz-adv-x="932" d="M50 1023h255l179 -672l178 672h250l-311 -1023h-243z" />
<glyph unicode="w" horiz-adv-x="1393" d="M60 1023h248l150 -551l145 551h216l146 -551l150 551h248l-266 -1023h-265l-121 514l-120 -513l-266 -1z" />
<glyph unicode="x" horiz-adv-x="866" d="M50 0l268 508l-268 516h254l144 -269l145 269h253l-268 -516l268 -508h-264l-134 258l-134 -258h-264z" />
<glyph unicode="y" horiz-adv-x="913" d="M50 1020h250l174 -658l175 658h244l-303 -999v-65q0 -116 -68 -215q-66 -97 -171 -138q-56 -22 -115 -23v253q56 0 82 28q33 36 33 129v29z" />
<glyph unicode="z" horiz-adv-x="761" d="M70 0v131l349 676h-349v214h651v-131l-356 -676h356v-214h-651z" />
<glyph unicode="&#x2000;" horiz-adv-x="719" />
<glyph unicode="&#x2001;" horiz-adv-x="1438" />
<glyph unicode="&#x2002;" horiz-adv-x="719" />
<glyph unicode="&#x2003;" horiz-adv-x="1438" />
<glyph unicode="&#x2004;" horiz-adv-x="479" />
<glyph unicode="&#x2005;" horiz-adv-x="359" />
<glyph unicode="&#x2006;" horiz-adv-x="239" />
<glyph unicode="&#x2007;" horiz-adv-x="239" />
<glyph unicode="&#x2008;" horiz-adv-x="179" />
<glyph unicode="&#x2009;" horiz-adv-x="287" />
<glyph unicode="&#x200a;" horiz-adv-x="79" />
<glyph unicode="&#x202f;" horiz-adv-x="287" />
<glyph unicode="&#x205f;" horiz-adv-x="359" />
<glyph unicode="&#x25fc;" horiz-adv-x="1025" d="M0 0v1025h1025v-1025h-1025z" />
</font>
</defs>
</svg>
